<?xml version="1.0" encoding="UTF-8" standalone="no"?>
<!-- Created with Inkscape (http://www.inkscape.org/) -->

<svg
   xmlns:dc="http://purl.org/dc/elements/1.1/"
   xmlns:cc="http://creativecommons.org/ns#"
   xmlns:rdf="http://www.w3.org/1999/02/22-rdf-syntax-ns#"
   xmlns:svg="http://www.w3.org/2000/svg"
   xmlns="http://www.w3.org/2000/svg"
   xmlns:xlink="http://www.w3.org/1999/xlink"
   xmlns:sodipodi="http://sodipodi.sourceforge.net/DTD/sodipodi-0.dtd"
   xmlns:inkscape="http://www.inkscape.org/namespaces/inkscape"
   inkscape:version="0.48.5 r10040"
   version="1.1"
   id="svg2"
   height="1052.3622047"
   width="744.09448819"
   sodipodi:docname="New document 1">
  <defs
     id="defs4">
    <filter
       inkscape:label="Silk carpet"
       inkscape:menu="Textures"
       inkscape:menu-tooltip="Silk carpet texture, horizontal stripes"
       color-interpolation-filters="sRGB"
       id="filter17399"
       x="-0.15"
       y="-0.15"
       width="1.3"
       height="1.3">
      <feTurbulence
         baseFrequency="0.1"
         seed="50"
         numOctaves="5"
         result="result1"
         type="fractalNoise"
         id="feTurbulence17401" />
      <feGaussianBlur
         stdDeviation="4"
         result="result7"
         id="feGaussianBlur17403" />
      <feDisplacementMap
         result="result5"
         in="SourceGraphic"
         scale="20"
         xChannelSelector="G"
         in2="result7"
         id="feDisplacementMap17405" />
      <feComposite
         result="result2"
         operator="in"
         in2="result1"
         in="result5"
         id="feComposite17407" />
      <feGaussianBlur
         stdDeviation="1"
         result="result6"
         id="feGaussianBlur17409" />
      <feSpecularLighting
         surfaceScale="-3"
         result="result4"
         specularConstant="3.5"
         specularExponent="35"
         in="result6"
         id="feSpecularLighting17411">
        <feDistantLight
           elevation="45"
           azimuth="225"
           id="feDistantLight17413" />
      </feSpecularLighting>
      <feComposite
         k1="1.7"
         k3="0.7"
         in2="result2"
         in="result4"
         operator="arithmetic"
         result="result91"
         id="feComposite17415" />
      <feBlend
         result="fbSourceGraphic"
         mode="multiply"
         in2="result91"
         id="feBlend17417" />
      <feComposite
         in2="fbSourceGraphic"
         in="fbSourceGraphic"
         result="result2"
         operator="arithmetic"
         id="feComposite17419" />
      <feComposite
         in="result2"
         result="result4"
         operator="arithmetic"
         k2="2"
         k3="2"
         in2="fbSourceGraphic"
         id="feComposite17421" />
      <feBlend
         mode="screen"
         in="result4"
         in2="result4"
         id="feBlend17423"
         result="fbSourceGraphic" />
      <feColorMatrix
         result="fbSourceGraphicAlpha"
         in="fbSourceGraphic"
         values="0 0 0 -1 0 0 0 0 -1 0 0 0 0 -1 0 0 0 0 1 0"
         id="feColorMatrix17455" />
      <feTurbulence
         id="feTurbulence17457"
         numOctaves="3"
         baseFrequency="0.037"
         result="result0"
         in="fbSourceGraphic" />
      <feSpecularLighting
         id="feSpecularLighting17459"
         specularExponent="24.3"
         surfaceScale="2"
         specularConstant="1"
         result="result1">
        <feDistantLight
           id="feDistantLight17461"
           elevation="45"
           azimuth="225" />
      </feSpecularLighting>
      <feDiffuseLighting
         id="feDiffuseLighting17463"
         in="result0"
         surfaceScale="3"
         diffuseConstant="1.21"
         result="result92">
        <feDistantLight
           id="feDistantLight17465"
           azimuth="225"
           elevation="42" />
      </feDiffuseLighting>
      <feBlend
         id="feBlend17467"
         in2="fbSourceGraphic"
         mode="multiply"
         result="result91" />
      <feComposite
         id="feComposite17469"
         in2="result91"
         operator="arithmetic"
         in="result1"
         k2="1"
         k3="1"
         result="result93" />
      <feComposite
         id="feComposite17471"
         in2="fbSourceGraphicAlpha"
         operator="in"
         result="fbSourceGraphic" />
      <feColorMatrix
         result="fbSourceGraphicAlpha"
         in="fbSourceGraphic"
         values="0 0 0 -1 0 0 0 0 -1 0 0 0 0 -1 0 0 0 0 1 0"
         id="feColorMatrix17473" />
      <feGaussianBlur
         id="feGaussianBlur17475"
         result="result8"
         stdDeviation="5"
         in="fbSourceGraphic" />
      <feTurbulence
         id="feTurbulence17477"
         baseFrequency="0.015"
         numOctaves="2"
         type="fractalNoise"
         result="result7"
         seed="20" />
      <feComposite
         id="feComposite17479"
         in2="result8"
         in="fbSourceGraphic"
         operator="in"
         result="result6" />
      <feComposite
         id="feComposite17481"
         in2="result7"
         in="result6"
         operator="arithmetic"
         result="result2"
         k3="1" />
      <feComposite
         id="feComposite17483"
         in2="result6"
         operator="in"
         in="result2"
         result="fbSourceGraphic" />
      <feComposite
         id="feComposite17485"
         in2="fbSourceGraphic"
         in="fbSourceGraphic"
         k2="2.5"
         operator="arithmetic"
         result="fbSourceGraphic" />
      <feColorMatrix
         result="fbSourceGraphicAlpha"
         in="fbSourceGraphic"
         values="0 0 0 -1 0 0 0 0 -1 0 0 0 0 -1 0 0 0 0 1 0"
         id="feColorMatrix17487" />
      <feTurbulence
         id="feTurbulence17489"
         type="turbulence"
         numOctaves="2"
         baseFrequency="0.01 0.11"
         seed="10"
         in="fbSourceGraphic" />
      <feColorMatrix
         id="feColorMatrix17491"
         result="result5"
         values="1 0 0 0 0 0 1 0 0 0 0 0 1 0 0 0 0 0 1.3 0 " />
      <feComposite
         id="feComposite17493"
         in2="result5"
         in="fbSourceGraphic"
         operator="out" />
      <feMorphology
         id="feMorphology17495"
         operator="dilate"
         radius="1.3"
         result="result3" />
      <feTurbulence
         id="feTurbulence17497"
         numOctaves="3"
         baseFrequency="0.08 0.05"
         type="fractalNoise"
         seed="7"
         result="result6" />
      <feGaussianBlur
         id="feGaussianBlur17499"
         stdDeviation="0.5"
         result="result7" />
      <feDisplacementMap
         id="feDisplacementMap17501"
         in2="result7"
         in="result3"
         xChannelSelector="R"
         yChannelSelector="G"
         scale="3"
         result="result4" />
      <feComposite
         id="feComposite17503"
         in2="result4"
         in="result4"
         k1="1"
         result="result2"
         operator="arithmetic"
         k2="1" />
      <feBlend
         id="feBlend17505"
         in2="result4"
         mode="normal"
         in="result2" />
    </filter>
  </defs>
  <sodipodi:namedview
     id="base"
     pagecolor="#ffffff"
     bordercolor="#666666"
     borderopacity="1.0"
     inkscape:pageopacity="0.0"
     inkscape:pageshadow="2"
     inkscape:zoom="1.1286109"
     inkscape:cx="370.90127"
     inkscape:cy="666.44012"
     inkscape:document-units="px"
     inkscape:current-layer="layer1"
     showgrid="false"
     inkscape:window-width="1280"
     inkscape:window-height="705"
     inkscape:window-x="-4"
     inkscape:window-y="-4"
     inkscape:window-maximized="1" />
  <metadata
     id="metadata7">
    <rdf:RDF>
      <cc:Work
         rdf:about="">
        <dc:format>image/svg+xml</dc:format>
        <dc:type
           rdf:resource="http://purl.org/dc/dcmitype/StillImage" />
        <dc:title></dc:title>
      </cc:Work>
    </rdf:RDF>
  </metadata>
  <g
     inkscape:label="Layer 1"
     inkscape:groupmode="layer"
     id="layer1">
    <rect
       style="fill:#ff2a2a"
       id="rect17717"
       width="660.9895"
       height="367.70865"
       x="53.162697"
       y="222.13808" />
    <path
       sodipodi:type="arc"
       style="fill:#552200"
       id="path17507"
       sodipodi:cx="342.45636"
       sodipodi:cy="377.63898"
       sodipodi:rx="187.3985"
       sodipodi:ry="131.57767"
       d="M 529.85486,377.63898 A 187.3985,131.57767 0 1 1 266.89799,257.23047 l 75.55837,120.40851 z"
       sodipodi:start="0"
       sodipodi:end="4.2973821"
       transform="matrix(0.74231678,0,0,1,133.87657,27.467393)" />
    <path
       style="fill:#ff8080;stroke:#000000;stroke-width:0.41084042px;stroke-linecap:butt;stroke-linejoin:miter;stroke-opacity:1"
       d="m 148.79223,356.72142 c 3.27621,39.67852 19.65725,52.0553 2.18414,48.77909 -17.47311,-3.2762 -28.75783,-23.29747 -19.29323,1.4561 9.46461,24.75357 13.83288,72.44059 29.8499,28.75782 16.01701,-43.68277 42.5907,-45.50288 28.3938,-62.97599 -14.1969,-17.47311 -16.01702,-18.20116 -26.57369,-21.84139 -10.55667,-3.64023 -14.56092,5.82437 -14.56092,5.82437 z"
       id="path17751"
       inkscape:connector-curvature="0" />
    <path
       style="fill:none;stroke:#000000;stroke-width:1px;stroke-linecap:butt;stroke-linejoin:miter;stroke-opacity:1"
       d="m 529.85487,293.02168 c 1.18139,-0.88605 2.49996,-1.61392 3.54418,-2.65814 0.75299,-0.75299 1.10685,-1.82659 1.77209,-2.65813 1.95935,-2.4492 3.87731,-3.62746 7.08836,-4.43023 0.85959,-0.21489 1.77209,0 2.65813,0 0.41904,0 4.22047,0 5.31627,0 0.62465,0 6.05873,0 6.20232,0 0.59069,0 1.24375,-0.26416 1.77209,0 0.74717,0.37359 1.18139,1.1814 1.77209,1.77209 0.59069,0.5907 1.46184,0.99647 1.77209,1.77209 0.32906,0.82268 -0.2802,1.81756 0,2.65814 0.62652,1.87958 2.08882,3.41857 2.65813,5.31627 0.33947,1.13157 -0.46537,2.45831 0,3.54418 1.35679,3.16583 3.54418,5.90696 5.31627,8.86045 0.88604,1.47674 1.74539,2.96983 2.65813,4.43022 0.5644,0.90303 1.24376,1.73355 1.77209,2.65814 2.20899,3.86572 1.36885,4.2286 5.31627,6.20231 0.5907,0.29535 1.1245,0.75653 1.77209,0.88605 0.86884,0.17376 1.77209,0 2.65814,0 0.59069,0 1.219,-0.20741 1.77209,0 1.85511,0.69566 3.38219,2.22834 5.31627,2.65813 1.067,0.23711 4.84705,-2.03252 5.31627,-2.65813 0.35442,-0.47256 -0.41769,-1.35441 0,-1.77209 0.41768,-0.41769 1.26557,0.30391 1.77209,0 3.04329,-1.82598 4.40198,-5.66043 5.31627,-8.86045 0.37852,-1.32482 1.06394,-4.78603 1.77209,-6.20232 0.77017,-1.54035 1.88796,-2.88987 2.65813,-4.43022 0.13209,-0.26417 0,-0.5907 0,-0.88605 0,-0.88604 0,-1.77209 0,-2.65813 0,-0.5907 0,-1.1814 0,-1.77209 0,-0.29535 0,-1.1814 0,-0.88605 0,0.5907 0,1.1814 0,1.77209 0,1.1814 -0.28653,2.39806 0,3.54418 0.32035,1.2814 1.35441,2.29113 1.77209,3.54418 0.16923,0.5077 0,3.59839 0,4.43023 0,0.35026 0.18921,4.05181 0,4.43022 -0.18679,0.37359 -0.5907,0.5907 -0.88604,0.88605 -0.29535,0.29535 -0.5907,0.59069 -0.88605,0.88604"
       id="path17753"
       inkscape:connector-curvature="0" />
    <path
       style="fill:none;stroke:#000000;stroke-width:1px;stroke-linecap:butt;stroke-linejoin:miter;stroke-opacity:1"
       d="m 563.52457,359.47505 c 1.47675,8.86045 0.88605,1.77209 0,10.63254 -0.11755,1.17553 0,2.36278 0,3.54418 0,3.24883 0,6.49766 0,9.74649 0,0.5907 0,1.18139 0,1.77209 0,0.5907 -0.18679,1.21171 0,1.77209 0.13209,0.39625 0.5907,0.5907 0.88605,0.88605 0.5907,0.59069 0.99647,1.46184 1.77209,1.77209 0.82267,0.32906 1.77209,0 2.65813,0 1.47675,0 2.95349,0 4.43023,0 5.28125,0 10.66756,0 15.94881,0 2.95348,0 5.91206,0.17343 8.86045,0 5.75294,-0.33841 7.512,-1.41985 13.29067,-2.65814 5.25517,-1.12611 5.12662,0.18965 8.86045,-3.54418 0.20884,-0.20884 0,-0.5907 0,-0.88604 0,-1.77209 0,-3.54418 0,-5.31627"
       id="path17755"
       inkscape:connector-curvature="0" />
    <path
       style="fill:none;stroke:#000000;stroke-width:1px;stroke-linecap:butt;stroke-linejoin:miter;stroke-opacity:1"
       d="m 590.99197,442.76327 c -2.03008,3.04512 -3.76185,4.63253 -4.43023,7.97441 -0.11584,0.57922 0,1.18139 0,1.77209 0,1.47674 0,2.95348 0,4.43022 0,0.5907 0,1.18139 0,1.77209 0,0.5907 -0.35441,1.29953 0,1.77209 0.63894,0.85191 1.84006,1.09036 2.65814,1.77209 3.38834,2.82361 2.59792,4.05122 7.9744,5.31627 5.12941,1.20692 15.33509,0.88604 20.37904,0.88604 5.02092,0 10.04184,0 15.06276,0 4.43022,0 8.86045,0 13.29067,0 2.36279,0 4.72558,0 7.08836,0 2.95349,0 5.94715,0.48555 8.86045,0 2.48912,-0.41485 4.74539,-1.72094 7.08836,-2.65813 0.61319,-0.24527 1.3051,-0.41906 1.77209,-0.88605 0.46699,-0.46698 0.6772,-1.14556 0.88605,-1.77209 0.0934,-0.28019 0,-0.59069 0,-0.88604 0,-1.40373 0.26416,-2.39397 -0.88605,-3.54418 -0.20884,-0.20884 -0.62188,0.13208 -0.88604,0 -0.37359,-0.18679 -0.51246,-0.69925 -0.88605,-0.88604 -0.26417,-0.13209 -0.88604,0.29534 -0.88604,0 0,-0.29535 0.59069,0 0.88604,0"
       id="path17757"
       inkscape:connector-curvature="0" />
    <path
       style="fill:none;stroke:#000000;stroke-width:1px;stroke-linecap:butt;stroke-linejoin:miter;stroke-opacity:1"
       d="m 643.26862,280.61705 c -1.9801,-2.54526 -1.61827,-6.29257 -3.54418,-8.86045 -4.77998,-6.3733 0.98385,1.86989 -3.54418,-2.65813 -0.75299,-0.753 -1.18139,-1.77209 -1.77209,-2.65814 -0.88605,-0.5907 -1.84006,-1.09036 -2.65814,-1.77209 -0.96262,-0.80219 -1.67966,-1.87536 -2.65813,-2.65813 -0.5157,-0.41256 -1.20579,-0.54627 -1.77209,-0.88605 -3.09372,-1.85623 -1.94742,-1.81592 -5.31627,-2.65813 -4.21067,-1.05267 -5.4533,-0.88605 -9.74649,-0.88605 -3.24884,0 -6.49767,0 -9.7465,0 -7.38371,0 -14.76741,0 -22.15112,0"
       id="path17759"
       inkscape:connector-curvature="0" />
    <path
       style="fill:none;stroke:#000000;stroke-width:1px;stroke-linecap:butt;stroke-linejoin:miter;stroke-opacity:1"
       d="m 516.56419,259.35197 c -10.92788,0 -21.85577,0 -32.78366,0 -2.06744,0 -4.13488,0 -6.20231,0 -0.29535,0 -0.5907,0 -0.88605,0 -0.29535,0 -0.65541,-0.1845 -0.88604,0 -1.30463,1.04371 -2.36279,2.36279 -3.54418,3.54418 -2.70931,2.70931 -3.62949,3.16611 -5.31627,6.20232 -0.96219,1.73193 -1.70941,3.57693 -2.65814,5.31626 -5.89644,10.81016 0.50049,-1.3324 -5.31627,7.97441 -2.03712,3.2594 -2.16097,5.05664 -3.54418,8.86045 -0.54354,1.49474 -1.38633,2.88721 -1.77209,4.43022 -0.21489,0.85959 0.2149,1.79855 0,2.65814 -0.1013,0.40521 -0.65435,0.53851 -0.88604,0.88604 -0.36634,0.5495 -0.6772,1.14556 -0.88605,1.77209 -0.0934,0.28019 0.29535,0.88605 0,0.88605 -0.29534,0 0,-0.5907 0,-0.88605"
       id="path17761"
       inkscape:connector-curvature="0" />
    <path
       style="fill:none;stroke:#000000;stroke-width:1px;stroke-linecap:butt;stroke-linejoin:miter;stroke-opacity:1"
       d="m 418.21321,313.40071 c -2.65814,-0.88604 -5.31627,-1.77209 -7.97441,-2.65813 -1.47674,-0.88605 -2.83124,-2.01854 -4.43022,-2.65814 -2.86299,-1.14519 -5.93516,-1.68304 -8.86045,-2.65813 -3.76187,-1.25396 -6.1317,-2.62283 -9.7465,-4.43023 -0.59069,-0.29535 -1.20578,-0.54626 -1.77209,-0.88604 -0.91313,-0.54789 -1.73354,-1.24376 -2.65813,-1.77209 -1.14681,-0.65532 -2.51278,-0.94697 -3.54418,-1.77209 -0.5157,-0.41256 -0.48979,-1.24376 -0.88605,-1.77209 -5.01641,-6.68855 1.90467,4.95002 -2.65813,-5.31627 -0.69944,-1.57373 -1.88796,-2.88988 -2.65813,-4.43023 -0.7113,-1.42258 -1.0608,-3.00763 -1.77209,-4.43022 -0.47624,-0.95247 -1.29586,-1.70567 -1.77209,-2.65814 -0.7113,-1.42258 -1.38634,-2.88721 -1.77209,-4.43022 -1.24286,-4.97144 1.59028,-0.36362 -0.88605,-5.31627 -0.77017,-1.54035 -1.55563,-3.10722 -2.65813,-4.43022 -0.42279,-0.50735 -1.3493,-0.3787 -1.77209,-0.88605 -1.10251,-1.323 -1.70286,-2.9973 -2.65814,-4.43022 -0.23169,-0.34754 -0.69925,-0.51246 -0.88604,-0.88605 -0.5907,-1.47674 -1.1814,-2.95348 -1.77209,-4.43022 0,-0.29535 0.0934,-0.60586 0,-0.88605 -2.13933,-6.41799 0.25545,1.39695 -1.77209,-2.65813 -0.41769,-0.83537 -0.36797,-1.88103 -0.88605,-2.65814 -0.16383,-0.24574 -0.75396,0.26417 -0.88604,0 -0.26417,-0.52833 0.26416,-1.24375 0,-1.77209 -0.13209,-0.26417 -0.62188,0.13209 -0.88605,0 -0.37359,-0.18679 -0.59069,-0.59069 -0.88604,-0.88604 -0.29535,-0.29535 -0.5907,-0.5907 -0.88605,-0.88605"
       id="path17763"
       inkscape:connector-curvature="0" />
    <flowRoot
       xml:space="preserve"
       id="flowRoot17765"
       style="font-size:40px;font-style:normal;font-weight:normal;line-height:125%;letter-spacing:0px;word-spacing:0px;fill:#000000;fill-opacity:1;stroke:none;font-family:Sans"><flowRegion
         id="flowRegion17767"><rect
           id="rect17769"
           width="85.946358"
           height="73.541733"
           x="211.76474"
           y="258.46591" /></flowRegion><flowPara
         id="flowPara17771">dfdfddfdf</flowPara></flowRoot>    <use
       id="use17819"
       xlink:href="#path17751"
       x="0"
       y="0"
       width="744.09448"
       height="1052.3622"
       transform="translate(-37.878366,-94.367835)" />
    <use
       id="use17821"
       xlink:href="#path17751"
       x="0"
       y="0"
       width="744.09448"
       height="1052.3622"
       transform="translate(-58.871199,-105.52938)" />
    <use
       id="use17823"
       xlink:href="#path17751"
       x="0"
       y="0"
       width="744.09448"
       height="1052.3622"
       transform="translate(-63.47188,-82.496762)" />
    <use
       id="use17825"
       xlink:href="#path17751"
       x="0"
       y="0"
       width="744.09448"
       height="1052.3622"
       transform="translate(-48.967107,-87.597154)" />
    <use
       id="use17827"
       xlink:href="#path17751"
       x="0"
       y="0"
       width="744.09448"
       height="1052.3622"
       transform="translate(-72.161572,-94.68291)" />
    <use
       id="use17829"
       xlink:href="#path17751"
       x="0"
       y="0"
       width="744.09448"
       height="1052.3622"
       transform="translate(-47.055006,-97.638037)" />
    <use
       id="use17831"
       xlink:href="#path17751"
       x="0"
       y="0"
       width="744.09448"
       height="1052.3622"
       transform="translate(-25.844545,-112.31563)" />
    <use
       id="use17833"
       xlink:href="#path17751"
       x="0"
       y="0"
       width="744.09448"
       height="1052.3622"
       transform="translate(-51.579017,-85.879997)" />
    <use
       id="use17835"
       xlink:href="#path17751"
       x="0"
       y="0"
       width="744.09448"
       height="1052.3622"
       transform="translate(-45.35244,-93.033345)" />
    <use
       id="use17837"
       xlink:href="#path17751"
       x="0"
       y="0"
       width="744.09448"
       height="1052.3622"
       transform="translate(-37.538232,-90.326569)" />
    <use
       id="use17839"
       xlink:href="#path17751"
       x="0"
       y="0"
       width="744.09448"
       height="1052.3622"
       transform="translate(-15.063193,-131.76895)" />
    <use
       id="use17841"
       xlink:href="#path17751"
       x="0"
       y="0"
       width="744.09448"
       height="1052.3622"
       transform="translate(-9.5391862,-85.7811)" />
    <use
       id="use17843"
       xlink:href="#path17751"
       x="0"
       y="0"
       width="744.09448"
       height="1052.3622"
       transform="translate(-23.474424,-119.59089)" />
    <use
       id="use17845"
       xlink:href="#path17751"
       x="0"
       y="0"
       width="744.09448"
       height="1052.3622"
       transform="translate(-38.744288,-117.66991)" />
    <use
       id="use17847"
       xlink:href="#path17751"
       x="0"
       y="0"
       width="744.09448"
       height="1052.3622"
       transform="translate(-36.357223,-106.45788)" />
    <use
       id="use17849"
       xlink:href="#path17751"
       x="0"
       y="0"
       width="744.09448"
       height="1052.3622"
       transform="translate(-18.881776,-99.881343)" />
    <use
       id="use17851"
       xlink:href="#path17751"
       x="0"
       y="0"
       width="744.09448"
       height="1052.3622"
       transform="translate(0.78189884,-128.2976)" />
    <use
       id="use17853"
       xlink:href="#path17751"
       x="0"
       y="0"
       width="744.09448"
       height="1052.3622"
       transform="translate(-0.99183734,-131.61319)" />
    <use
       id="use17855"
       xlink:href="#path17751"
       x="0"
       y="0"
       width="744.09448"
       height="1052.3622"
       transform="translate(-18.963435,-109.24932)" />
    <use
       id="use17857"
       xlink:href="#path17751"
       x="0"
       y="0"
       width="744.09448"
       height="1052.3622"
       transform="translate(31.242968,-116.60499)" />
    <use
       id="use17859"
       xlink:href="#path17751"
       x="0"
       y="0"
       width="744.09448"
       height="1052.3622"
       transform="translate(45.74127,-107.57604)" />
    <use
       id="use17861"
       xlink:href="#path17751"
       x="0"
       y="0"
       width="744.09448"
       height="1052.3622"
       transform="translate(60.480556,-101.66007)" />
    <use
       id="use17863"
       xlink:href="#path17751"
       x="0"
       y="0"
       width="744.09448"
       height="1052.3622"
       transform="translate(58.845972,-136.03095)" />
    <use
       id="use17865"
       xlink:href="#path17751"
       x="0"
       y="0"
       width="744.09448"
       height="1052.3622"
       transform="translate(57.917039,-155.91102)" />
    <use
       id="use17867"
       xlink:href="#path17751"
       x="0"
       y="0"
       width="744.09448"
       height="1052.3622"
       transform="translate(51.290966,-144.97957)" />
    <use
       id="use17869"
       xlink:href="#path17751"
       x="0"
       y="0"
       width="744.09448"
       height="1052.3622"
       transform="translate(49.735586,-119.47317)" />
    <use
       id="use17871"
       xlink:href="#path17751"
       x="0"
       y="0"
       width="744.09448"
       height="1052.3622"
       transform="translate(79.118808,148.46379)" />
    <use
       id="use17873"
       xlink:href="#path17751"
       x="0"
       y="0"
       width="744.09448"
       height="1052.3622"
       transform="translate(72.606327,122.94796)" />
    <use
       id="use17875"
       xlink:href="#path17751"
       x="0"
       y="0"
       width="744.09448"
       height="1052.3622"
       transform="translate(64.337176,108.05164)" />
    <use
       id="use17877"
       xlink:href="#path17751"
       x="0"
       y="0"
       width="744.09448"
       height="1052.3622"
       transform="translate(82.961676,139.12889)" />
    <use
       id="use17879"
       xlink:href="#path17751"
       x="0"
       y="0"
       width="744.09448"
       height="1052.3622"
       transform="translate(104.50257,115.98344)" />
    <use
       id="use17881"
       xlink:href="#path17751"
       x="0"
       y="0"
       width="744.09448"
       height="1052.3622"
       transform="translate(109.88042,148.70729)" />
    <use
       id="use17883"
       xlink:href="#path17751"
       x="0"
       y="0"
       width="744.09448"
       height="1052.3622"
       transform="translate(93.730719,165.13917)" />
    <use
       id="use17885"
       xlink:href="#path17751"
       x="0"
       y="0"
       width="744.09448"
       height="1052.3622"
       transform="translate(119.5477,114.86468)" />
    <use
       id="use17887"
       xlink:href="#path17751"
       x="0"
       y="0"
       width="744.09448"
       height="1052.3622"
       transform="translate(102.3906,164.8945)" />
    <use
       id="use17889"
       xlink:href="#path17751"
       x="0"
       y="0"
       width="744.09448"
       height="1052.3622"
       transform="translate(150.21978,158.92229)" />
    <use
       id="use17891"
       xlink:href="#path17751"
       x="0"
       y="0"
       width="744.09448"
       height="1052.3622"
       transform="translate(156.07542,146.7527)" />
    <use
       id="use17893"
       xlink:href="#path17751"
       x="0"
       y="0"
       width="744.09448"
       height="1052.3622"
       transform="translate(189.40009,115.8662)" />
    <use
       id="use17895"
       xlink:href="#path17751"
       x="0"
       y="0"
       width="744.09448"
       height="1052.3622"
       transform="translate(209.07378,121.21265)" />
    <use
       id="use17897"
       xlink:href="#path17751"
       x="0"
       y="0"
       width="744.09448"
       height="1052.3622"
       transform="translate(208.52626,110.34248)" />
    <use
       id="use17899"
       xlink:href="#path17751"
       x="0"
       y="0"
       width="744.09448"
       height="1052.3622"
       transform="translate(240.1405,137.0181)" />
    <use
       id="use17901"
       xlink:href="#path17751"
       x="0"
       y="0"
       width="744.09448"
       height="1052.3622"
       transform="translate(210.98428,117.33895)" />
    <use
       id="use17903"
       xlink:href="#path17751"
       x="0"
       y="0"
       width="744.09448"
       height="1052.3622"
       transform="translate(200.90554,95.669527)" />
    <use
       id="use17905"
       xlink:href="#path17751"
       x="0"
       y="0"
       width="744.09448"
       height="1052.3622"
       transform="translate(207.29757,110.52254)" />
    <use
       id="use17907"
       xlink:href="#path17751"
       x="0"
       y="0"
       width="744.09448"
       height="1052.3622"
       transform="translate(327.95907,106.87498)" />
    <use
       id="use17909"
       xlink:href="#path17751"
       x="0"
       y="0"
       width="744.09448"
       height="1052.3622"
       transform="translate(349.99413,112.75287)" />
    <use
       id="use17911"
       xlink:href="#path17751"
       x="0"
       y="0"
       width="744.09448"
       height="1052.3622"
       transform="translate(329.99993,82.773289)" />
    <use
       id="use17913"
       xlink:href="#path17751"
       x="0"
       y="0"
       width="744.09448"
       height="1052.3622"
       transform="translate(314.61971,113.15257)" />
    <use
       id="use17915"
       xlink:href="#path17751"
       x="0"
       y="0"
       width="744.09448"
       height="1052.3622"
       transform="translate(332.57163,110.01971)" />
    <use
       id="use17917"
       xlink:href="#path17751"
       x="0"
       y="0"
       width="744.09448"
       height="1052.3622"
       transform="translate(345.76441,96.612902)" />
    <use
       id="use17919"
       xlink:href="#path17751"
       x="0"
       y="0"
       width="744.09448"
       height="1052.3622"
       transform="translate(366.04654,114.73252)" />
    <use
       id="use17921"
       xlink:href="#path17751"
       x="0"
       y="0"
       width="744.09448"
       height="1052.3622"
       transform="translate(378.23655,81.998735)" />
    <use
       id="use17923"
       xlink:href="#path17751"
       x="0"
       y="0"
       width="744.09448"
       height="1052.3622"
       transform="translate(399.42497,40.331019)" />
    <use
       id="use17925"
       xlink:href="#path17751"
       x="0"
       y="0"
       width="744.09448"
       height="1052.3622"
       transform="translate(385.65727,33.247544)" />
    <use
       id="use17927"
       xlink:href="#path17751"
       x="0"
       y="0"
       width="744.09448"
       height="1052.3622"
       transform="translate(409.15767,0.66250819)" />
    <use
       id="use17929"
       xlink:href="#path17751"
       x="0"
       y="0"
       width="744.09448"
       height="1052.3622"
       transform="translate(420.07362,-4.1591797)" />
    <use
       id="use17931"
       xlink:href="#path17751"
       x="0"
       y="0"
       width="744.09448"
       height="1052.3622"
       transform="translate(377.64165,23.087726)" />
    <use
       id="use17933"
       xlink:href="#path17751"
       x="0"
       y="0"
       width="744.09448"
       height="1052.3622"
       transform="translate(392.55659,0.11547266)" />
    <use
       id="use17935"
       xlink:href="#path17751"
       x="0"
       y="0"
       width="744.09448"
       height="1052.3622"
       transform="translate(399.84387,7.8358628)" />
    <use
       id="use17937"
       xlink:href="#path17751"
       x="0"
       y="0"
       width="744.09448"
       height="1052.3622"
       transform="translate(393.35676,-5.9960066)" />
    <use
       id="use17939"
       xlink:href="#path17751"
       x="0"
       y="0"
       width="744.09448"
       height="1052.3622"
       transform="translate(423.46044,-1.9500324)" />
    <use
       id="use17941"
       xlink:href="#path17751"
       x="0"
       y="0"
       width="744.09448"
       height="1052.3622"
       transform="translate(331.06619,-91.854872)" />
    <use
       id="use17943"
       xlink:href="#path17751"
       x="0"
       y="0"
       width="744.09448"
       height="1052.3622"
       transform="translate(320.73122,-115.25856)" />
    <use
       id="use17945"
       xlink:href="#path17751"
       x="0"
       y="0"
       width="744.09448"
       height="1052.3622"
       transform="translate(300.95528,-80.234267)" />
    <use
       id="use17947"
       xlink:href="#path17751"
       x="0"
       y="0"
       width="744.09448"
       height="1052.3622"
       transform="translate(312.2029,-41.352286)" />
    <use
       id="use17949"
       xlink:href="#path17751"
       x="0"
       y="0"
       width="744.09448"
       height="1052.3622"
       transform="translate(310.55188,-86.139225)" />
    <use
       id="use17951"
       xlink:href="#path17751"
       x="0"
       y="0"
       width="744.09448"
       height="1052.3622"
       transform="translate(319.71849,-40.528673)" />
    <use
       id="use17953"
       xlink:href="#path17751"
       x="0"
       y="0"
       width="744.09448"
       height="1052.3622"
       transform="translate(270.43049,-35.950221)" />
    <use
       id="use17955"
       xlink:href="#path17751"
       x="0"
       y="0"
       width="744.09448"
       height="1052.3622"
       transform="translate(302.41554,-48.285264)" />
    <use
       id="use17957"
       xlink:href="#path17751"
       x="0"
       y="0"
       width="744.09448"
       height="1052.3622"
       transform="translate(333.02637,-1.5077233)" />
    <use
       id="use17959"
       xlink:href="#path17751"
       x="0"
       y="0"
       width="744.09448"
       height="1052.3622"
       transform="translate(322.2807,-47.823653)" />
    <use
       id="use17961"
       xlink:href="#path17751"
       x="0"
       y="0"
       width="744.09448"
       height="1052.3622"
       transform="translate(340.62213,-48.071352)" />
    <use
       id="use17963"
       xlink:href="#path17751"
       x="0"
       y="0"
       width="744.09448"
       height="1052.3622"
       transform="translate(318.4553,-13.389984)" />
    <use
       id="use17965"
       xlink:href="#path17751"
       x="0"
       y="0"
       width="744.09448"
       height="1052.3622"
       transform="translate(333.30331,-18.436569)" />
    <use
       id="use17967"
       xlink:href="#path17751"
       x="0"
       y="0"
       width="744.09448"
       height="1052.3622"
       transform="translate(307.90983,-20.9656)" />
    <use
       id="use17969"
       xlink:href="#path17751"
       x="0"
       y="0"
       width="744.09448"
       height="1052.3622"
       transform="translate(444.57673,-53.951144)" />
    <use
       id="use17971"
       xlink:href="#path17751"
       x="0"
       y="0"
       width="744.09448"
       height="1052.3622"
       transform="translate(481.75506,-47.368025)" />
    <use
       id="use17973"
       xlink:href="#path17751"
       x="0"
       y="0"
       width="744.09448"
       height="1052.3622"
       transform="translate(493.09464,-3.8381658)" />
    <use
       id="use17975"
       xlink:href="#path17751"
       x="0"
       y="0"
       width="744.09448"
       height="1052.3622"
       transform="translate(464.29376,-3.2970887)" />
    <use
       id="use17977"
       xlink:href="#path17751"
       x="0"
       y="0"
       width="744.09448"
       height="1052.3622"
       transform="translate(445.84096,10.171433)" />
    <use
       id="use17979"
       xlink:href="#path17751"
       x="0"
       y="0"
       width="744.09448"
       height="1052.3622"
       transform="translate(441.30086,49.090125)" />
    <use
       id="use17981"
       xlink:href="#path17751"
       x="0"
       y="0"
       width="744.09448"
       height="1052.3622"
       transform="translate(471.08006,61.466365)" />
    <use
       id="use17983"
       xlink:href="#path17751"
       x="0"
       y="0"
       width="744.09448"
       height="1052.3622"
       transform="translate(454.13172,22.624405)" />
    <use
       id="use17985"
       xlink:href="#path17751"
       x="0"
       y="0"
       width="744.09448"
       height="1052.3622"
       transform="translate(482.62314,54.579045)" />
    <use
       id="use17987"
       xlink:href="#path17751"
       x="0"
       y="0"
       width="744.09448"
       height="1052.3622"
       transform="translate(457.45257,81.997811)" />
    <use
       id="use17989"
       xlink:href="#path17751"
       x="0"
       y="0"
       width="744.09448"
       height="1052.3622"
       transform="translate(459.39763,82.270635)" />
    <use
       id="use17991"
       xlink:href="#path17751"
       x="0"
       y="0"
       width="744.09448"
       height="1052.3622"
       transform="translate(502.53619,-141.3987)" />
    <use
       id="use17993"
       xlink:href="#path17751"
       x="0"
       y="0"
       width="744.09448"
       height="1052.3622"
       transform="translate(512.6865,-148.25875)" />
    <use
       id="use17995"
       xlink:href="#path17751"
       x="0"
       y="0"
       width="744.09448"
       height="1052.3622"
       transform="translate(455.90902,-160.01376)" />
    <use
       id="use17997"
       xlink:href="#path17751"
       x="0"
       y="0"
       width="744.09448"
       height="1052.3622"
       transform="translate(500.46159,-157.89502)" />
    <use
       id="use17999"
       xlink:href="#path17751"
       x="0"
       y="0"
       width="744.09448"
       height="1052.3622"
       transform="translate(491.27741,-142.57609)" />
    <use
       id="use18001"
       xlink:href="#path17751"
       x="0"
       y="0"
       width="744.09448"
       height="1052.3622"
       transform="translate(515.72824,-20.159454)" />
    <use
       id="use18003"
       xlink:href="#path17751"
       x="0"
       y="0"
       width="744.09448"
       height="1052.3622"
       transform="translate(545.31667,-17.696318)" />
    <use
       id="use18005"
       xlink:href="#path17751"
       x="0"
       y="0"
       width="744.09448"
       height="1052.3622"
       transform="translate(560.04065,-24.978102)" />
    <use
       id="use18007"
       xlink:href="#path17751"
       x="0"
       y="0"
       width="744.09448"
       height="1052.3622"
       transform="translate(535.30842,-0.22023366)" />
    <use
       id="use18009"
       xlink:href="#path17751"
       x="0"
       y="0"
       width="744.09448"
       height="1052.3622"
       transform="translate(531.21548,26.997426)" />
    <use
       id="use18011"
       xlink:href="#path17751"
       x="0"
       y="0"
       width="744.09448"
       height="1052.3622"
       transform="translate(567.28746,0.09826697)" />
    <use
       id="use18013"
       xlink:href="#path17751"
       x="0"
       y="0"
       width="744.09448"
       height="1052.3622"
       transform="translate(550.46387,154.92691)" />
    <use
       id="use18015"
       xlink:href="#path17751"
       x="0"
       y="0"
       width="744.09448"
       height="1052.3622"
       transform="translate(569.18463,125.63023)" />
    <use
       id="use18017"
       xlink:href="#path17751"
       x="0"
       y="0"
       width="744.09448"
       height="1052.3622"
       transform="translate(569.77153,116.44336)" />
  </g>
</svg>
